<svg width="694" height="968" viewBox="0 0 694 968" fill="none" xmlns="http://www.w3.org/2000/svg">
<path d="M738.358 301C738.358 506.45 545.45 623 340 623C134.55 623 0.52002 491.257 0.52002 285.807C0.52002 80.3572 402 -65 738.358 31.0002C929.5 93.1931 738.358 95.5502 738.358 301Z" fill="#FAA94C" fill-opacity="0.22"/>
<line x1="1.5" y1="-1.5" x2="101.265" y2="-1.5" transform="matrix(0.646973 -0.762513 0.650429 0.759567 187.217 845.36)" stroke="url(#paint0_linear)" stroke-width="3" stroke-linecap="round" stroke-linejoin="round"/>
<line x1="2.5" y1="-2.5" x2="233.74" y2="-2.5" transform="matrix(0.645856 -0.763459 0.651542 0.758612 179.545 877.36)" stroke="url(#paint1_linear)" stroke-width="5" stroke-linecap="round" stroke-linejoin="round"/>
<line x1="1.5" y1="-1.5" x2="101.265" y2="-1.5" transform="matrix(0.646973 -0.762513 0.650429 0.759567 188.685 935.36)" stroke="url(#paint2_linear)" stroke-width="3" stroke-linecap="round" stroke-linejoin="round"/>
<line x1="2.5" y1="-2.5" x2="233.74" y2="-2.5" transform="matrix(0.645856 -0.763459 0.651542 0.758612 181.014 967.36)" stroke="url(#paint3_linear)" stroke-width="5" stroke-linecap="round" stroke-linejoin="round"/>
<line x1="1.5" y1="-1.5" x2="101.265" y2="-1.5" transform="matrix(0.646973 -0.762513 0.650429 0.759567 388.996 684.359)" stroke="url(#paint4_linear)" stroke-width="3" stroke-linecap="round" stroke-linejoin="round"/>
<path d="M155 742.072L219.545 666" stroke="url(#paint5_linear)" stroke-opacity="0.6" stroke-width="3" stroke-linecap="round" stroke-linejoin="round"/>
<line x1="1.5" y1="-1.5" x2="101.265" y2="-1.5" transform="matrix(0.646973 -0.762513 0.650429 0.759567 416.272 826.359)" stroke="url(#paint6_linear)" stroke-width="3" stroke-linecap="round" stroke-linejoin="round"/>
<line x1="1.5" y1="-1.5" x2="101.265" y2="-1.5" transform="matrix(0.646973 -0.762513 0.650429 0.759567 357.545 587.359)" stroke="url(#paint7_linear)" stroke-width="3" stroke-linecap="round" stroke-linejoin="round"/>
<line x1="2.5" y1="-2.5" x2="233.74" y2="-2.5" transform="matrix(0.645856 -0.763459 0.651542 0.758612 412.863 850.359)" stroke="url(#paint8_linear)" stroke-width="5" stroke-linecap="round" stroke-linejoin="round"/>
<line x1="2.5" y1="-2.5" x2="233.74" y2="-2.5" transform="matrix(0.645856 -0.763459 0.651542 0.758612 521.968 589.36)" stroke="url(#paint9_linear)" stroke-width="5" stroke-linecap="round" stroke-linejoin="round"/>
<defs>
<linearGradient id="paint0_linear" x1="54.904" y1="-4.47599" x2="138.305" y2="-4.15818" gradientUnits="userSpaceOnUse">
<stop stop-color="#303547"/>
<stop offset="1" stop-opacity="0"/>
</linearGradient>
<linearGradient id="paint1_linear" x1="37.0507" y1="-0.103312" x2="317.949" y2="-1.72291" gradientUnits="userSpaceOnUse">
<stop stop-color="#303547"/>
<stop offset="1" stop-opacity="0"/>
</linearGradient>
<linearGradient id="paint2_linear" x1="54.904" y1="-4.47599" x2="138.305" y2="-4.15818" gradientUnits="userSpaceOnUse">
<stop stop-color="#303547"/>
<stop offset="1" stop-opacity="0"/>
</linearGradient>
<linearGradient id="paint3_linear" x1="37.0507" y1="-0.103312" x2="317.949" y2="-1.72291" gradientUnits="userSpaceOnUse">
<stop stop-color="#303547"/>
<stop offset="1" stop-opacity="0"/>
</linearGradient>
<linearGradient id="paint4_linear" x1="54.904" y1="-4.47599" x2="138.305" y2="-4.15818" gradientUnits="userSpaceOnUse">
<stop stop-color="#303547"/>
<stop offset="1" stop-opacity="0"/>
</linearGradient>
<linearGradient id="paint5_linear" x1="225.557" y1="717.095" x2="288.27" y2="663.801" gradientUnits="userSpaceOnUse">
<stop stop-color="#303547"/>
<stop offset="1" stop-opacity="0"/>
</linearGradient>
<linearGradient id="paint6_linear" x1="54.904" y1="-4.47599" x2="138.305" y2="-4.15818" gradientUnits="userSpaceOnUse">
<stop stop-color="#303547"/>
<stop offset="1" stop-opacity="0"/>
</linearGradient>
<linearGradient id="paint7_linear" x1="54.904" y1="-4.47599" x2="138.305" y2="-4.15818" gradientUnits="userSpaceOnUse">
<stop stop-color="#303547"/>
<stop offset="1" stop-opacity="0"/>
</linearGradient>
<linearGradient id="paint8_linear" x1="37.0507" y1="-0.103312" x2="317.949" y2="-1.72291" gradientUnits="userSpaceOnUse">
<stop stop-color="#303547"/>
<stop offset="1" stop-opacity="0"/>
</linearGradient>
<linearGradient id="paint9_linear" x1="37.0507" y1="-0.103312" x2="317.949" y2="-1.72291" gradientUnits="userSpaceOnUse">
<stop stop-color="#303547"/>
<stop offset="1" stop-opacity="0"/>
</linearGradient>
</defs>
</svg>
