<svg width="23" height="32" viewBox="0 0 23 32" fill="none" xmlns="http://www.w3.org/2000/svg">
<path d="M11.459 0C5.14046 0 0 5.14046 0 11.4589C0 19.3003 10.2547 30.8119 10.6913 31.2982C11.1013 31.7549 11.8173 31.7541 12.2267 31.2982C12.6633 30.8119 22.9179 19.3003 22.9179 11.4589C22.9178 5.14046 17.7774 0 11.459 0ZM11.459 17.2242C8.27997 17.2242 5.69374 14.6379 5.69374 11.4589C5.69374 8.27991 8.28003 5.69367 11.459 5.69367C14.6379 5.69367 17.2241 8.27997 17.2241 11.459C17.2241 14.638 14.6379 17.2242 11.459 17.2242Z" fill="white"/>
</svg>
