<svg width="32" height="26" viewBox="0 0 32 26" fill="none" xmlns="http://www.w3.org/2000/svg">
<path d="M15.9638 4.74939C21.2851 4.8016 24.6186 4.47052 25.0688 10.3686H31.5578C31.5578 1.23157 23.5891 0 15.7949 0C8.00004 0 0.0319824 1.23157 0.0319824 10.3686H6.47056C6.96872 4.35811 10.6868 4.69779 15.9638 4.74939Z" fill="white"/>
<path d="M3.25 13.3061C4.83047 13.3061 6.14558 13.4007 6.43796 11.8461C6.47727 11.6347 6.5 11.3952 6.5 11.1182H6.42506H0C0 13.4308 1.45516 13.3061 3.25 13.3061Z" fill="white"/>
<path d="M25.1106 11.1182H25.0498C25.0498 11.397 25.0738 11.6372 25.1186 11.8461C25.427 13.2797 26.7402 13.1906 28.3152 13.1906C30.1186 13.1906 31.5805 13.3092 31.5805 11.1182H25.1106Z" fill="white"/>
<path d="M21.9405 9.54315V8.62423C21.9405 8.2133 21.4669 8.1875 20.8821 8.1875H19.9269C19.3428 8.1875 18.8692 8.2133 18.8692 8.62423V9.416V10.0303H12.1124V9.416V8.62423C12.1124 8.2133 11.6389 8.1875 11.0547 8.1875H10.0989C9.51478 8.1875 9.0412 8.2133 9.0412 8.62423V9.54315V10.3454C7.50188 11.9449 2.46503 18.7538 2.28198 19.5782L2.28444 25.0788C2.28444 25.5868 2.69783 26.0002 3.20582 26.0002H27.7758C28.2838 26.0002 28.6972 25.5868 28.6972 25.0788V19.5505C28.516 18.7502 23.4804 11.9443 21.9405 10.3447V9.54315ZM11.7795 20.3183C11.2851 20.3183 10.8839 19.9178 10.8839 19.4228C10.8839 18.9277 11.2851 18.5272 11.7795 18.5272C12.274 18.5272 12.6751 18.9277 12.6751 19.4228C12.6751 19.9178 12.274 20.3183 11.7795 20.3183ZM11.7795 17.2471C11.2851 17.2471 10.8839 16.8466 10.8839 16.3515C10.8839 15.8564 11.2851 15.4559 11.7795 15.4559C12.274 15.4559 12.6751 15.8564 12.6751 16.3515C12.6751 16.8466 12.274 17.2471 11.7795 17.2471ZM11.7795 14.1764C11.2851 14.1764 10.8839 13.776 10.8839 13.2809C10.8839 12.7864 11.2851 12.3853 11.7795 12.3853C12.274 12.3853 12.6751 12.7864 12.6751 13.2809C12.6751 13.776 12.274 14.1764 11.7795 14.1764ZM15.465 20.3183C14.9706 20.3183 14.5695 19.9178 14.5695 19.4228C14.5695 18.9277 14.9706 18.5272 15.465 18.5272C15.9601 18.5272 16.3606 18.9277 16.3606 19.4228C16.3606 19.9178 15.9601 20.3183 15.465 20.3183ZM15.465 17.2471C14.9706 17.2471 14.5695 16.8466 14.5695 16.3515C14.5695 15.8564 14.9706 15.4559 15.465 15.4559C15.9601 15.4559 16.3606 15.8564 16.3606 16.3515C16.3606 16.8466 15.9601 17.2471 15.465 17.2471ZM15.465 14.1764C14.9706 14.1764 14.5695 13.776 14.5695 13.2809C14.5695 12.7864 14.9706 12.3853 15.465 12.3853C15.9601 12.3853 16.3606 12.7864 16.3606 13.2809C16.3606 13.776 15.9601 14.1764 15.465 14.1764ZM19.1505 20.3183C18.6554 20.3183 18.255 19.9178 18.255 19.4228C18.255 18.9277 18.6554 18.5272 19.1505 18.5272C19.6456 18.5272 20.0461 18.9277 20.0461 19.4228C20.0461 19.9178 19.6456 20.3183 19.1505 20.3183ZM19.1505 17.2471C18.6554 17.2471 18.255 16.8466 18.255 16.3515C18.255 15.8564 18.6554 15.4559 19.1505 15.4559C19.6456 15.4559 20.0461 15.8564 20.0461 16.3515C20.0461 16.8466 19.6456 17.2471 19.1505 17.2471ZM19.1505 14.1764C18.6554 14.1764 18.255 13.776 18.255 13.2809C18.255 12.7864 18.6554 12.3853 19.1505 12.3853C19.6456 12.3853 20.0461 12.7864 20.0461 13.2809C20.0461 13.776 19.6456 14.1764 19.1505 14.1764Z" fill="white"/>
</svg>
