<svg width="21" height="21" viewBox="0 0 21 21" fill="none" xmlns="http://www.w3.org/2000/svg">
<path d="M8.70605 12.5667C6.69956 10.6786 6.2465 8.79049 6.14429 8.03403C6.11573 7.82486 6.19222 7.6151 6.35125 7.46651L7.975 5.93926C8.21385 5.71464 8.25624 5.36458 8.0772 5.09515L5.49189 1.31762C5.29382 1.01928 4.88713 0.91161 4.5528 1.06899L0.402456 2.9083C0.132094 3.03358 -0.026929 3.30388 0.0037676 3.58598C0.221234 5.53 1.12191 10.3089 6.11276 15.0055C11.1036 19.7022 16.1814 20.5494 18.2485 20.754C18.5483 20.7829 18.8355 20.6333 18.9686 20.3789L20.9233 16.4734C21.0899 16.1595 20.9763 15.7779 20.6605 15.5911L16.6461 13.1591C16.3599 12.9904 15.9879 13.03 15.7491 13.2546L14.126 14.7825C13.9681 14.9321 13.7452 15.0041 13.5229 14.9772C12.719 14.8811 10.7125 14.4547 8.70605 12.5667Z" fill="white"/>
</svg>
