<svg width="32" height="25" viewBox="0 0 32 25" fill="none" xmlns="http://www.w3.org/2000/svg">
<path d="M28.8595 0H2.78088C2.3528 0 1.95204 0.105242 1.58948 0.278708L15.7584 14.4476L18.9341 11.3956C18.9341 11.3956 18.9344 11.3953 18.9344 11.3952C18.9345 11.3951 18.9347 11.3949 18.9347 11.3949L30.0514 0.278955C29.6887 0.105365 29.2877 0 28.8595 0Z" fill="white"/>
<path d="M31.3622 1.58984L20.9009 12.0506L31.3618 22.5115C31.5353 22.149 31.6405 21.7482 31.6405 21.3201V2.78081C31.6405 2.35298 31.5355 1.95229 31.3622 1.58984Z" fill="white"/>
<path d="M0.278708 1.58936C0.105242 1.95192 0 2.35268 0 2.78075V21.3201C0 21.7479 0.105118 22.1487 0.278461 22.5112L10.7398 12.0504L0.278708 1.58936Z" fill="white"/>
<path d="M19.5901 13.3615L16.4139 16.4138C16.2328 16.5949 15.9957 16.6854 15.7585 16.6854C15.5214 16.6854 15.2842 16.5949 15.1032 16.4138L12.0506 13.3613L1.58911 23.8221C1.95174 23.9957 2.35275 24.1011 2.78094 24.1011H28.8596C29.2877 24.1011 29.6884 23.9959 30.051 23.8224L19.5901 13.3615Z" fill="white"/>
</svg>
