<svg width="746" height="586" viewBox="0 0 746 586" fill="none" xmlns="http://www.w3.org/2000/svg">
<line x1="2.5" y1="-2.5" x2="144.642" y2="-2.5" transform="matrix(0.629246 -0.777206 0.667897 0.744254 76.2773 392.391)" stroke="url(#paint0_linear)" stroke-width="5" stroke-linecap="round" stroke-linejoin="round"/>
<line x1="1.5" y1="-1.5" x2="101.265" y2="-1.5" transform="matrix(0.646973 -0.762513 0.650429 0.759567 283.671 439.36)" stroke="url(#paint1_linear)" stroke-width="3" stroke-linecap="round" stroke-linejoin="round"/>
<line x1="2.5" y1="-2.5" x2="233.74" y2="-2.5" transform="matrix(0.644874 -0.764288 0.650564 0.759451 3 515.359)" stroke="url(#paint2_linear)" stroke-width="5" stroke-linecap="round" stroke-linejoin="round"/>
<line x1="2.5" y1="-2.5" x2="233.74" y2="-2.5" transform="matrix(0.645856 -0.763459 0.651542 0.758612 276 471.36)" stroke="url(#paint3_linear)" stroke-width="5" stroke-linecap="round" stroke-linejoin="round"/>
<line x1="1.5" y1="-1.5" x2="101.265" y2="-1.5" transform="matrix(0.646973 -0.762513 0.650429 0.759567 285.14 529.36)" stroke="url(#paint4_linear)" stroke-width="3" stroke-linecap="round" stroke-linejoin="round"/>
<line x1="2.5" y1="-2.5" x2="233.74" y2="-2.5" transform="matrix(0.645856 -0.763459 0.651542 0.758612 277.468 561.36)" stroke="url(#paint5_linear)" stroke-width="5" stroke-linecap="round" stroke-linejoin="round"/>
<line x1="1.5" y1="-1.5" x2="101.265" y2="-1.5" transform="matrix(0.646973 -0.762513 0.650429 0.759567 485.451 278.359)" stroke="url(#paint6_linear)" stroke-width="3" stroke-linecap="round" stroke-linejoin="round"/>
<path d="M251.455 336.072L316 260" stroke="url(#paint7_linear)" stroke-opacity="0.6" stroke-width="3" stroke-linecap="round" stroke-linejoin="round"/>
<line x1="2.5" y1="-2.5" x2="233.74" y2="-2.5" transform="matrix(0.645856 -0.763459 0.651542 0.758612 63.5194 585.36)" stroke="url(#paint8_linear)" stroke-width="5" stroke-linecap="round" stroke-linejoin="round"/>
<line x1="1.5" y1="-1.5" x2="101.265" y2="-1.5" transform="matrix(0.646973 -0.762513 0.650429 0.759567 512.727 420.359)" stroke="url(#paint9_linear)" stroke-width="3" stroke-linecap="round" stroke-linejoin="round"/>
<line x1="1.5" y1="-1.5" x2="101.265" y2="-1.5" transform="matrix(0.646973 -0.762513 0.650429 0.759567 454 181.359)" stroke="url(#paint10_linear)" stroke-width="3" stroke-linecap="round" stroke-linejoin="round"/>
<line x1="2.5" y1="-2.5" x2="233.74" y2="-2.5" transform="matrix(0.645856 -0.763459 0.651542 0.758612 509.317 444.359)" stroke="url(#paint11_linear)" stroke-width="5" stroke-linecap="round" stroke-linejoin="round"/>
<line x1="2.5" y1="-2.5" x2="233.74" y2="-2.5" transform="matrix(0.645856 -0.763459 0.651542 0.758612 618.423 183.36)" stroke="url(#paint12_linear)" stroke-width="5" stroke-linecap="round" stroke-linejoin="round"/>
<defs>
<linearGradient id="paint0_linear" x1="78.6133" y1="-4.47599" x2="198.027" y2="-3.82445" gradientUnits="userSpaceOnUse">
<stop stop-color="#303547"/>
<stop offset="1" stop-opacity="0"/>
</linearGradient>
<linearGradient id="paint1_linear" x1="54.904" y1="-4.47599" x2="138.305" y2="-4.15818" gradientUnits="userSpaceOnUse">
<stop stop-color="#303547"/>
<stop offset="1" stop-opacity="0"/>
</linearGradient>
<linearGradient id="paint2_linear" x1="37.0507" y1="-0.103312" x2="317.949" y2="-1.72291" gradientUnits="userSpaceOnUse">
<stop stop-color="#303547"/>
<stop offset="1" stop-opacity="0"/>
</linearGradient>
<linearGradient id="paint3_linear" x1="37.0507" y1="-0.103312" x2="317.949" y2="-1.72291" gradientUnits="userSpaceOnUse">
<stop stop-color="#303547"/>
<stop offset="1" stop-opacity="0"/>
</linearGradient>
<linearGradient id="paint4_linear" x1="54.904" y1="-4.47599" x2="138.305" y2="-4.15818" gradientUnits="userSpaceOnUse">
<stop stop-color="#303547"/>
<stop offset="1" stop-opacity="0"/>
</linearGradient>
<linearGradient id="paint5_linear" x1="37.0507" y1="-0.103312" x2="317.949" y2="-1.72291" gradientUnits="userSpaceOnUse">
<stop stop-color="#303547"/>
<stop offset="1" stop-opacity="0"/>
</linearGradient>
<linearGradient id="paint6_linear" x1="54.904" y1="-4.47599" x2="138.305" y2="-4.15818" gradientUnits="userSpaceOnUse">
<stop stop-color="#303547"/>
<stop offset="1" stop-opacity="0"/>
</linearGradient>
<linearGradient id="paint7_linear" x1="322.012" y1="311.095" x2="384.725" y2="257.801" gradientUnits="userSpaceOnUse">
<stop stop-color="#303547"/>
<stop offset="1" stop-opacity="0"/>
</linearGradient>
<linearGradient id="paint8_linear" x1="37.0507" y1="-0.103312" x2="317.949" y2="-1.72291" gradientUnits="userSpaceOnUse">
<stop stop-color="#303547"/>
<stop offset="1" stop-opacity="0"/>
</linearGradient>
<linearGradient id="paint9_linear" x1="54.904" y1="-4.47599" x2="138.305" y2="-4.15818" gradientUnits="userSpaceOnUse">
<stop stop-color="#303547"/>
<stop offset="1" stop-opacity="0"/>
</linearGradient>
<linearGradient id="paint10_linear" x1="54.904" y1="-4.47599" x2="138.305" y2="-4.15818" gradientUnits="userSpaceOnUse">
<stop stop-color="#303547"/>
<stop offset="1" stop-opacity="0"/>
</linearGradient>
<linearGradient id="paint11_linear" x1="37.0507" y1="-0.103312" x2="317.949" y2="-1.72291" gradientUnits="userSpaceOnUse">
<stop stop-color="#303547"/>
<stop offset="1" stop-opacity="0"/>
</linearGradient>
<linearGradient id="paint12_linear" x1="37.0507" y1="-0.103312" x2="317.949" y2="-1.72291" gradientUnits="userSpaceOnUse">
<stop stop-color="#303547"/>
<stop offset="1" stop-opacity="0"/>
</linearGradient>
</defs>
</svg>
